Coordinates
version=1
nRows=17
nColumns=36
inDegrees=yes

Units are S.I. units (second, meters, Newtons, ...)
If the header above contains a line with 'inDegrees', this indicates whether rotational values are in degrees (yes) or radians (no).

endheader
time	pelvis_tilt	pelvis_list	pelvis_rotation	pelvis_tx	pelvis_ty	pelvis_tz	hip_flexion_r	hip_adduction_r	hip_rotation_r	knee_angle_r	knee_angle_r_beta	ankle_angle_r	subtalar_angle_r	mtp_angle_r	hip_flexion_l	hip_adduction_l	hip_rotation_l	knee_angle_l	knee_angle_l_beta	ankle_angle_l	subtalar_angle_l	mtp_angle_l	lumbar_extension	lumbar_bending	lumbar_rotation	arm_flex_r	arm_add_r	arm_rot_r	elbow_flex_r	pro_sup_r	arm_flex_l	arm_add_l	arm_rot_l	elbow_flex_l	pro_sup_l
      0.00000000	     -9.24688868	     -2.68589138	      8.60826763	      0.59561747	      0.91218406	     -0.00924827	      7.41023650	     -4.30943573	     -1.55580576	      0.30711719	      0.00536021	     -2.28669163	    -11.02582296	     -5.80775818	      6.98542858	     -7.61567743	     -2.61889676	      1.46693616	      0.02560287	      4.91168061	     -4.55917717	     -5.80775818	      7.68592351	      1.73056383	      1.59227764	     39.94397913	      0.96278279	     46.92016158	    125.96917688	     88.79225482	     32.58761308	      3.53001297	     61.95749942	    123.04424974	     92.78879377
      0.01666670	     -9.18794001	     -1.78569633	      7.70561966	      0.59671421	      0.91190604	     -0.00907861	      7.43846447	     -5.30707713	     -2.54285248	      0.36369755	      0.00634772	     -0.32432382	     -9.55445200	     -6.33767343	      6.47981347	     -6.85106956	     -3.56321508	      1.71304423	      0.02989826	      4.19275197	     -4.86279263	     -6.33767343	      6.56782684	      1.47026911	      3.97556526	     43.51479288	     -1.34593689	     57.32586679	    131.58522178	    100.26069924	     34.04299961	      3.80431507	     63.93405222	    126.39058118	    102.94308946
      0.03333330	     -8.45868543	     -1.57700436	      8.36018296	      0.59662803	      0.91344178	     -0.00947548	      6.39420234	     -5.48087231	     -2.57795627	      0.39923778	      0.00696801	      0.46080857	     -9.90036481	     -6.47821339	      6.05386771	     -6.69940525	     -3.68327040	      2.19007299	      0.03822398	      4.49854796	     -5.23008565	     -6.47821339	      5.49496299	      1.01822847	      3.03420519	     43.33688988	      0.66610178	     57.03689557	    131.95219024	    102.76260136	     34.29852690	      2.91220869	     64.27926251	    126.95552317	    106.48784166
      0.05000000	     -7.98486238	     -1.50779379	      9.01347762	      0.59549383	      0.91521156	     -0.01025229	      5.74021442	     -5.64423765	     -3.30132999	      0.46052795	      0.00803773	      0.78076342	     -9.63296665	     -6.62734963	      5.99735757	     -6.66634821	     -3.79167367	      2.75728053	      0.04812362	      4.99103615	     -5.14627065	     -6.62734963	      4.66372524	      0.85282642	      2.37920284	     43.21215859	      1.66087695	     57.13761779	    131.30561882	    104.15161237	     34.54372777	      2.58486106	     64.29706176	    127.12543078	    108.19762627
      0.06666670	     -7.79752471	     -1.51676275	      9.40779576	      0.59527357	      0.91581905	     -0.01075919	      5.50314548	     -5.64864592	     -3.49287566	      0.56330776	      0.00983158	      0.85009493	     -9.69915125	     -6.82504708	      6.07948781	     -6.70876993	     -3.67413097	      3.21038347	      0.05603176	      5.09937327	     -5.19941581	     -6.82504708	      4.25778458	      0.74919074	      2.19853588	     42.77377306	      1.95028365	     57.29825700	    130.90451763	    104.19398389	     34.77198746	      2.69467044	     64.29068898	    126.90652559	    108.25384730
      0.08333330	     -7.84942797	     -1.59140644	      9.72738024	      0.59542655	      0.91370670	     -0.01148891	      5.49401525	     -5.65080283	     -3.83467035	      0.65592366	      0.01144803	      0.72111823	     -9.68599057	     -7.03880499	      6.38012302	     -6.78695941	     -3.63958427	      3.56021744	      0.06213752	      5.13951639	     -5.09107425	     -7.03880499	      4.36108586	      0.75759929	      2.01135989	     42.25627391	      2.02668722	     57.23685481	    130.74240367	    103.52965910	     34.88809302	      2.90718193	     63.96199320	    126.76043342	    107.92040411
      0.10000000	     -7.95066791	     -1.68379411	      9.94695693	      0.59561908	      0.91401679	     -0.01176027	      5.59804643	     -5.60210642	     -3.85746280	      0.75936987	      0.01325350	      0.39898814	    -10.19688617	     -7.37988510	      6.68700288	     -6.88426903	     -3.81082582	      3.86151165	      0.06739609	      5.37567525	     -4.70948570	     -7.37988510	      4.50772850	      0.84076158	      1.89484629	     41.78140502	      2.07928441	     57.32376081	    130.71342432	    102.83067284	     34.90574183	      3.04800614	     63.79691291	    126.60156317	    107.34043410
      0.11666670	     -7.83745130	     -1.77595657	     10.14924159	      0.59976193	      0.91898805	     -0.01020722	      5.40729258	     -5.47075565	     -4.08693232	      0.83106273	      0.01450478	      0.40721972	    -10.26560572	     -7.38044565	      6.65492562	     -7.01303268	     -3.94615401	      3.94943577	      0.06893066	      5.24808125	     -4.66682716	     -7.38044565	      4.41616834	      0.92120043	      1.91679350	     40.99943488	      1.97246752	     57.60360127	    130.67818611	    102.82179683	     34.51315905	      2.84815605	     63.91784692	    126.48960121	    107.34205920
      0.13333330	     -7.89418517	     -1.86094782	     10.32474465	      0.59575501	      0.91609985	     -0.01263007	      5.43634101	     -5.37124318	     -4.20985474	      0.85169053	      0.01486480	      0.45186888	    -10.31751784	     -7.38095606	      6.77133799	     -7.07155385	     -3.99329835	      3.93377868	      0.06865739	      5.05845558	     -4.50068614	     -7.38095606	      4.47407898	      1.00394070	      1.80560447	     40.70397243	      1.84750688	     57.68555528	    130.66006583	    102.79405471	     34.51855069	      3.04647563	     64.00185612	    126.59910522	    107.32801470
      0.15000000	     -8.13642362	     -1.94775773	     10.43173996	      0.59565273	      0.91571176	     -0.01276609	      5.68244305	     -5.29281033	     -4.25104751	      0.88418426	      0.01543193	      0.48951000	    -10.45667443	     -7.45304109	      7.10601073	     -7.10255416	     -4.24155267	      3.91778958	      0.06837833	      5.13268306	     -3.97346636	     -7.45304109	      4.79820966	      0.99916137	      1.98080738	     40.43761086	      1.65949131	     57.42656343	    131.01978892	    101.37130928	     34.64984740	      3.31794081	     64.48013650	    126.58330017	    106.01347639
      0.16666670	     -8.20641042	     -2.01875592	     10.57492825	      0.59572117	      0.91577067	     -0.01296911	      5.73429458	     -5.20295284	     -4.30558998	      0.89058570	      0.01554365	      0.53194131	    -10.61374834	     -7.48283378	      7.25022294	     -7.12661208	     -4.21769458	      3.86488078	      0.06745489	      5.12391039	     -3.77363656	     -7.48283378	      4.84426385	      1.03183961	      1.97172118	     40.36543184	      1.52215839	     57.36274157	    131.27147664	    100.87052343	     34.75631426	      3.36519370	     64.71231249	    126.66568731	    105.71274463
      0.18333330	     -8.24798286	     -2.07394141	     10.72254727	      0.59544103	      0.91536404	     -0.01326262	      5.73054570	     -5.13082718	     -4.42198370	      0.87386813	      0.01525188	      0.63386281	    -10.69037503	     -7.49156062	      7.33088005	     -7.13197219	     -4.10636848	      3.74642062	      0.06538737	      5.01570677	     -3.76326598	     -7.49156062	      4.87822209	      1.05586085	      1.99158877	     40.36841618	      1.37713175	     57.18263484	    131.47824228	    100.03267770	     34.82948612	      3.50924186	     64.83309958	    126.69982063	    105.79093032
      0.20000000	     -8.19427873	     -2.10865597	     10.84789923	      0.59954501	      0.91618172	     -0.01647946	      5.57234114	     -5.08821723	     -4.48574218	      0.84465445	      0.01474200	      0.68429933	    -10.79648190	     -7.49160220	      7.15385170	     -7.09769732	     -4.15298222	      3.56292923	      0.06218485	      4.88349833	     -3.68517333	     -7.49160220	      4.95831305	      1.15409570	      1.86811882	     40.02401037	      1.13485468	     57.31879329	    131.56305679	    100.03528164	     34.57376541	      3.54987132	     64.91879311	    126.71268525	    105.78255216
      0.21666670	     -8.10889334	     -2.07339686	     10.89037635	      0.59929817	      0.91579050	     -0.01653661	      5.40271762	     -5.09525775	     -4.52110458	      0.79494632	      0.01387443	      0.65926493	    -10.94565675	     -7.49534495	      6.90946960	     -7.00605023	     -4.08652896	      3.32829679	      0.05808974	      4.83028662	     -3.52150390	     -7.49534495	      4.93183778	      1.11750771	      2.03340358	     39.77572853	      0.85786412	     57.39580976	    131.93755598	     99.85094158	     34.44867364	      3.82652580	     65.02709135	    126.60093891	    105.37660004
      0.23333330	     -8.04239544	     -2.05607679	     10.99044043	      0.59962116	      0.91387991	     -0.01677467	      5.24848133	     -5.09753807	     -4.46238454	      0.76527627	      0.01335659	      0.72348319	    -11.20223481	     -7.49805161	      6.72975482	     -6.93160232	     -4.09813500	      3.15834067	      0.05512344	      4.71418632	     -3.44163298	     -7.49805161	      4.98336181	      1.10961452	      2.03994664	     39.70190089	      0.77293750	     57.20645574	    132.11446387	    100.35895647	     34.50692601	      4.02728176	     65.08960633	    126.60483930	    104.67477680
      0.25000000	     -7.94144921	     -2.02450106	     11.08018288	      0.59876092	      0.91575146	     -0.01654131	      5.07766131	     -5.11237234	     -4.45589249	      0.74142063	      0.01294023	      0.78861446	    -11.39540529	     -7.49892733	      6.55087592	     -6.87389330	     -4.00232667	      3.01475017	      0.05261732	      4.72701633	     -3.33749209	     -7.49892733	      4.87592737	      1.08975411	      2.02886053	     39.69685519	      0.65788801	     57.35032545	    132.11131265	     99.98086453	     34.51483001	      4.04549143	     65.17319043	    126.59398404	    104.73156368
      0.26666670	     -7.98288031	     -2.06100438	     11.14395090	      0.59429358	      0.91719791	     -0.01324142	      5.12269392	     -5.05256122	     -4.48243587	      0.74356294	      0.01297762	      0.82449874	    -11.42349340	     -7.49892871	      6.63982435	     -6.89130813	     -3.94549387	      2.96456468	      0.05174141	      4.74854614	     -3.32727693	     -7.49892871	      4.73661359	      1.03456137	      2.07983008	     39.75760019	      0.65227152	     57.32366663	    132.05815166	     99.97667713	     34.56222475	      3.97500475	     65.15056626	    126.56396605	    104.73283162
